# xmcd
#
# Track frame offsets:
#	150
#	12974
#	23661
#	39096
#	55310
#	65356
#	82120
#	97026
#	108660
#	120020
#	131909
#	153776
#	169803
#	187196
#	200370
#	212297
# Disc length: 3101 seconds
# Revision: 4
# Processed by: cddbd v1.5.1PL2 Copyright (c) Steve Scherf et al.
#
# Submitted via: libkcddb 0.21
#
DISCID=ce0c1b10
DTITLE=Various Artist - Love Songs
DYEAR=2003
DGENRE=Lovesong
TTITLE0=Andy Williams - Feelings
TTITLE1=Timi Yuro - Hurt
TTITLE2=The Platters - My Prayer
TTITLE3=Heroild Melvin and the blue notes - If You Don't Know Me By Know
TTITLE4=Brenda Lee - I'm Sorry
TTITLE5=Leo Sayer - Love Hurts
TTITLE6=Heroild Melvin and the blue notes - Me And Mrs. Jones
TTITLE7=Charles Aznavour - She
TTITLE8=The Platters - Smoke Gets In Your Eyes
TTITLE9=Aaron Neville/ Tell I Like It
TTITLE10=Barry White and Love Unlimited Orchestra/ The Better Love Is
TTITLE11=Heroild Melvin and The Blue Notes - The Love I Lost
TTITLE12=Shirley Bassey - This Is My Love
TTITLE13=Percy Sledge - When Man Loves A Woman
TTITLE14=The Platters - Only You
TTITLE15=Sam Cooke - You Send Me
EXTD=YEAR: 2003
EXTT0=
EXTT1=
EXTT2=
EXTT3=
EXTT4=
EXTT5=
EXTT6=
EXTT7=
EXTT8=
EXTT9=
EXTT10=
EXTT11=
EXTT12=
EXTT13=
EXTT14=
EXTT15=
PLAYORDER=
